<svg width="19" height="12" viewBox="0 0 19 12" fill="none" xmlns="http://www.w3.org/2000/svg">
<path d="M18.2831 2.92903L10.0151 10.829C9.91665 10.9228 9.81002 10.9891 9.69519 11.0278C9.58036 11.0672 9.45732 11.0869 9.32608 11.0869C9.19484 11.0869 9.07181 11.0672 8.95698 11.0278C8.84214 10.9891 8.73551 10.9228 8.63708 10.829L0.344499 2.92903C0.114833 2.71024 -3.78111e-07 2.43675 -3.92456e-07 2.10856C-4.06802e-07 1.78037 0.123035 1.49906 0.369106 1.26464C0.615176 1.03022 0.902259 0.913006 1.23035 0.913006C1.55845 0.913006 1.84553 1.03022 2.0916 1.26464L9.32608 8.15664L16.5606 1.26464C16.7902 1.04584 17.073 0.936447 17.409 0.936447C17.7456 0.936447 18.037 1.05366 18.2831 1.28808C18.5291 1.5225 18.6522 1.79599 18.6522 2.10856C18.6522 2.42112 18.5291 2.69461 18.2831 2.92903Z" fill="black"/>
</svg>
