<svg width="45" height="37" viewBox="0 0 45 37" fill="none" xmlns="http://www.w3.org/2000/svg">
<path d="M41.124 0C34.4401 1.0531 25.0242 4.15353 17.896 9.38579C17.9338 9.40478 17.9716 9.43327 18.0095 9.45226C18.4632 9.74664 18.8414 10.1455 19.0966 10.6298C25.3361 6.11919 33.5798 3.18969 39.8004 1.97421V32.347H41.5021V1.20504C41.4737 0.711246 41.209 0.0617236 41.124 0ZM8.51786 0.540319C6.75378 0.540319 5.19674 2.28757 5.19674 4.60933C5.19674 6.93584 6.75378 8.68309 8.51786 8.68309C10.2857 8.68309 11.8361 6.93584 11.8361 4.60933C11.8361 2.28757 10.2857 0.540319 8.51786 0.540319ZM5.83582 9.49974C4.26177 13.507 3.60378 17.6947 3.15095 21.5501C5.46334 21.4646 7.71145 21.3222 9.86029 21.1228C9.69013 19.7649 9.58613 18.4164 9.52941 17.068C8.77311 16.5077 7.9979 15.8525 7.22363 15.1593L8.35714 13.8869C9.38761 14.808 10.3897 15.6341 11.2784 16.2134C12.1576 16.8021 12.9422 17.1155 13.3487 17.144H13.3582C13.3109 17.144 13.5567 17.106 13.8971 16.8781C14.2279 16.6407 14.6534 16.2609 15.0882 15.7861C15.958 14.846 16.9034 13.5165 17.6124 12.1966C17.7353 11.9687 17.7353 11.7788 17.6408 11.5414C17.5557 11.304 17.3477 11.0476 17.083 10.8862C16.8277 10.7152 16.5347 10.6393 16.2889 10.6677C16.0431 10.6962 15.8067 10.7912 15.542 11.152L13.0084 14.5611L9.03782 10.3544C8.86765 10.3829 8.69748 10.3924 8.51786 10.3924C7.51954 10.3924 6.60441 10.06 5.83582 9.49974ZM24.1355 20.6385C18.1702 21.9964 9.55777 23.2404 0.0945378 23.3068V32.252H13.2069C18.2931 29.6406 22.3109 24.6838 24.1355 20.6385ZM4.34874 33.7714C3.10273 33.7714 1.58162 34.1797 0.297794 34.569C0.195693 34.5975 0.0983193 34.626 0 34.664V36.4492C0.244853 36.3733 0.509559 36.2878 0.790336 36.2023C2.01176 35.832 3.51586 35.4806 4.34874 35.4806C5.18162 35.4806 6.07784 35.8035 7.07048 36.1833C8.06408 36.5632 9.15126 37 10.3992 37C11.6471 37 12.7342 36.5632 13.7269 36.1833C14.7195 35.8035 15.6176 35.4806 16.4496 35.4806C17.2815 35.4806 18.1796 35.8035 19.1723 36.1833C20.1649 36.5632 21.2521 37 22.5 37C23.7479 37 24.8351 36.5632 25.8277 36.1833C26.8204 35.8035 27.7185 35.4806 28.5504 35.4806C29.3824 35.4806 30.2805 35.8035 31.2731 36.1833C32.2658 36.5632 33.3529 37 34.6008 37C35.8487 37 36.9359 36.5632 37.9286 36.1833C38.9212 35.8035 39.8193 35.4806 40.6513 35.4806C41.4832 35.4806 42.9863 35.832 44.2059 36.2023C44.4895 36.2878 44.7542 36.3733 45 36.4492V34.664C44.9055 34.626 44.8109 34.5975 44.7069 34.569C43.4212 34.1797 41.8992 33.7714 40.6513 33.7714C39.4034 33.7714 38.3162 34.2082 37.3235 34.588C36.3309 34.9679 35.4328 35.2907 34.6008 35.2907C33.7689 35.2907 32.8708 34.9679 31.8782 34.588C30.8855 34.2082 29.7983 33.7714 28.5504 33.7714C27.3025 33.7714 26.2153 34.2082 25.2227 34.588C24.23 34.9679 23.3319 35.2907 22.5 35.2907C21.6681 35.2907 20.77 34.9679 19.7773 34.588C18.7847 34.2082 17.6975 33.7714 16.4496 33.7714C15.2017 33.7714 14.1145 34.2082 13.1218 34.588C12.1292 34.9679 11.2311 35.2907 10.3992 35.2907C9.56723 35.2907 8.66912 34.9679 7.67647 34.588C6.68382 34.2082 5.59475 33.7714 4.34874 33.7714Z" fill="#35B8EB"/>
</svg>
