<svg width="43" height="43" viewBox="0 0 43 43" fill="none" xmlns="http://www.w3.org/2000/svg">
<path d="M42.8951 26.447C42.9512 26.6755 42.9618 26.9129 42.9263 27.1455C42.8909 27.3781 42.8099 27.6015 42.6882 27.8028C42.5665 28.0041 42.4064 28.1794 42.217 28.3187C42.0276 28.4581 41.8126 28.5587 41.5844 28.6148L36.0732 29.9585L37.5181 35.3579C37.579 35.5852 37.5945 35.8223 37.5638 36.0557C37.5332 36.2891 37.4569 36.5141 37.3393 36.7179C37.2217 36.9217 37.0652 37.1003 36.8787 37.2435C36.6921 37.3868 36.4792 37.4918 36.2522 37.5526C36.1015 37.5961 35.9459 37.6202 35.7892 37.6243C35.3955 37.6239 35.013 37.4936 34.7009 37.2535C34.3887 37.0134 34.1643 36.6769 34.0625 36.2962L32.3358 29.8465L23.2638 24.6039V35.0914L28.1085 39.9399C28.2747 40.1063 28.4066 40.3039 28.4966 40.5214C28.5865 40.7389 28.6328 40.972 28.6328 41.2074C28.6328 41.4428 28.5865 41.6759 28.4966 41.8934C28.4066 42.1109 28.2747 42.3085 28.1085 42.475C27.9422 42.6414 27.7449 42.7735 27.5276 42.8635C27.3104 42.9536 27.0776 43 26.8425 43C26.6074 43 26.3746 42.9536 26.1574 42.8635C25.9402 42.7735 25.7428 42.6414 25.5766 42.475L21.4745 38.3655L17.3725 42.475C17.2062 42.6414 17.0089 42.7735 16.7917 42.8635C16.5744 42.9536 16.3416 43 16.1065 43C15.8714 43 15.6386 42.9536 15.4214 42.8635C15.2042 42.7735 15.0068 42.6414 14.8406 42.475C14.6743 42.3085 14.5424 42.1109 14.4525 41.8934C14.3625 41.6759 14.3162 41.4428 14.3162 41.2074C14.3162 40.972 14.3625 40.7389 14.4525 40.5214C14.5424 40.3039 14.6743 40.1063 14.8406 39.9399L19.6852 35.0914V24.6039L10.6155 29.8465L8.88881 36.2962C8.78686 36.6773 8.56214 37.014 8.24952 37.2542C7.9369 37.4943 7.55387 37.6244 7.15986 37.6243C7.00285 37.624 6.84651 37.6037 6.69464 37.5638C6.46755 37.503 6.25466 37.3979 6.06813 37.2547C5.88159 37.1115 5.72507 36.9329 5.60751 36.7291C5.48994 36.5253 5.41364 36.3002 5.38296 36.0669C5.35227 35.8335 5.36781 35.5964 5.42868 35.3691L6.87357 29.9697L1.36243 28.626C0.901511 28.5126 0.504481 28.2205 0.25868 27.8139C0.0128786 27.4074 -0.0615588 26.9197 0.0517425 26.4582C0.165044 25.9967 0.456803 25.5992 0.862836 25.3531C1.26887 25.107 1.75592 25.0324 2.21683 25.1459L8.80381 26.765L17.8959 21.5L8.80605 16.2462L2.21907 17.8653C2.07932 17.9 1.93584 17.9173 1.79187 17.9168C1.35435 17.9171 0.931888 17.7569 0.604347 17.4665C0.276806 17.1761 0.0668892 16.7756 0.0142835 16.3407C-0.0383221 15.9058 0.0700295 15.4667 0.318853 15.1063C0.567677 14.746 0.939728 14.4895 1.36466 14.3852L6.87581 13.0415L5.43092 7.6309C5.30813 7.17178 5.37252 6.68262 5.60993 6.27104C5.84735 5.85946 6.23833 5.55916 6.69687 5.43621C7.15542 5.31327 7.64396 5.37774 8.05503 5.61545C8.46609 5.85316 8.76601 6.24464 8.88881 6.70376L10.6155 13.1535L19.6852 18.3961V7.9086L14.8406 3.06012C14.5048 2.72395 14.3162 2.268 14.3162 1.79258C14.3162 1.55717 14.3625 1.32407 14.4525 1.10659C14.5424 0.889103 14.6743 0.691491 14.8406 0.525034C15.0068 0.358578 15.2042 0.226538 15.4214 0.136452C15.6386 0.0463665 15.8714 0 16.1065 0C16.5813 0 17.0367 0.18886 17.3725 0.525034L21.4745 4.63448L25.5766 0.525034C25.9123 0.18886 26.3677 -1.12013e-08 26.8425 0C27.3173 1.12013e-08 27.7727 0.18886 28.1085 0.525034C28.4442 0.861208 28.6328 1.31716 28.6328 1.79258C28.6328 2.268 28.4442 2.72395 28.1085 3.06012L23.2638 7.9086V18.3961L32.3335 13.1535L34.0602 6.70376C34.183 6.24464 34.4829 5.85316 34.894 5.61545C35.3051 5.37774 35.7936 5.31327 36.2522 5.43621C36.7107 5.55916 37.1017 5.85946 37.3391 6.27104C37.5765 6.68262 37.6409 7.17178 37.5181 7.6309L36.0732 13.0303L41.5844 14.374C42.0212 14.4674 42.4073 14.721 42.6668 15.0849C42.9264 15.4488 43.0406 15.8968 42.9871 16.3408C42.9336 16.7848 42.7161 17.1927 42.3775 17.4843C42.0389 17.7759 41.6036 17.9302 41.1572 17.9168C41.0132 17.9173 40.8697 17.9 40.73 17.8653L34.143 16.2462L25.0532 21.5L34.143 26.7538L40.73 25.1347C40.9582 25.0785 41.1952 25.0678 41.4276 25.1034C41.6599 25.1389 41.883 25.2199 42.084 25.3418C42.2851 25.4636 42.4602 25.624 42.5993 25.8136C42.7385 26.0032 42.839 26.2185 42.8951 26.447Z" fill="#35B8EB"/>
</svg>
