<svg width="36" height="44" viewBox="0 0 36 44" fill="none" xmlns="http://www.w3.org/2000/svg">
<path d="M18 42C18 42 34 30 34 17C34 8.716 26.837 2 18 2C9.163 2 2 8.716 2 17C2 30 18 42 18 42Z" stroke="#35B8EB" stroke-width="4" stroke-linejoin="round"/>
<path d="M15 12V28" stroke="#35B8EB" stroke-width="4" stroke-linecap="round" stroke-linejoin="round"/>
<path d="M15 12H21C22.0609 12 23.0783 12.4214 23.8284 13.1716C24.5786 13.9217 25 14.9391 25 16C25 17.0609 24.5786 18.0783 23.8284 18.8284C23.0783 19.5786 22.0609 20 21 20H15V12Z" stroke="#35B8EB" stroke-width="4" stroke-linejoin="round"/>
</svg>
