<svg width="75" height="75" viewBox="0 0 75 75" fill="none" xmlns="http://www.w3.org/2000/svg">
<circle cx="37.5" cy="37.5" r="37.5" fill="#EAF7FC"/>
<path d="M58.8951 42.447C58.9512 42.6755 58.9618 42.9129 58.9263 43.1455C58.8908 43.3781 58.8099 43.6015 58.6882 43.8028C58.5665 44.0041 58.4064 44.1794 58.217 44.3187C58.0276 44.4581 57.8126 44.5587 57.5844 44.6148L52.0732 45.9585L53.5181 51.3579C53.579 51.5852 53.5945 51.8224 53.5638 52.0557C53.5332 52.2891 53.4569 52.5141 53.3393 52.7179C53.2217 52.9217 53.0652 53.1003 52.8787 53.2435C52.6921 53.3868 52.4792 53.4918 52.2522 53.5526C52.1015 53.5961 51.9459 53.6202 51.7892 53.6243C51.3955 53.6239 51.013 53.4936 50.7009 53.2535C50.3887 53.0134 50.1643 52.6769 50.0625 52.2962L48.3358 45.8465L39.2638 40.6039V51.0914L44.1085 55.9399C44.2747 56.1063 44.4066 56.3039 44.4966 56.5214C44.5865 56.7389 44.6328 56.972 44.6328 57.2074C44.6328 57.4428 44.5865 57.6759 44.4966 57.8934C44.4066 58.1109 44.2747 58.3085 44.1085 58.475C43.9422 58.6414 43.7449 58.7735 43.5276 58.8635C43.3104 58.9536 43.0776 59 42.8425 59C42.6074 59 42.3746 58.9536 42.1574 58.8635C41.9402 58.7735 41.7428 58.6414 41.5766 58.475L37.4745 54.3655L33.3725 58.475C33.2062 58.6414 33.0089 58.7735 32.7917 58.8635C32.5744 58.9536 32.3416 59 32.1065 59C31.8714 59 31.6386 58.9536 31.4214 58.8635C31.2042 58.7735 31.0068 58.6414 30.8406 58.475C30.6743 58.3085 30.5424 58.1109 30.4525 57.8934C30.3625 57.6759 30.3162 57.4428 30.3162 57.2074C30.3162 56.972 30.3625 56.7389 30.4525 56.5214C30.5424 56.3039 30.6743 56.1063 30.8406 55.9399L35.6852 51.0914V40.6039L26.6155 45.8465L24.8888 52.2962C24.7869 52.6773 24.5621 53.014 24.2495 53.2542C23.9369 53.4943 23.5539 53.6244 23.1599 53.6243C23.0028 53.624 22.8465 53.6037 22.6946 53.5638C22.4676 53.503 22.2547 53.398 22.0681 53.2547C21.8816 53.1115 21.7251 52.9329 21.6075 52.7291C21.4899 52.5253 21.4136 52.3002 21.383 52.0669C21.3523 51.8335 21.3678 51.5964 21.4287 51.3691L22.8736 45.9697L17.3624 44.626C16.9015 44.5126 16.5045 44.2205 16.2587 43.8139C16.0129 43.4074 15.9384 42.9197 16.0517 42.4582C16.165 41.9967 16.4568 41.5992 16.8628 41.3531C17.2689 41.107 17.7559 41.0324 18.2168 41.1459L24.8038 42.765L33.8959 37.5L24.806 32.2462L18.2191 33.8653C18.0793 33.9 17.9358 33.9173 17.7919 33.9168C17.3544 33.9171 16.9319 33.7569 16.6043 33.4665C16.2768 33.1761 16.0669 32.7756 16.0143 32.3407C15.9617 31.9058 16.07 31.4667 16.3189 31.1063C16.5677 30.746 16.9397 30.4895 17.3647 30.3852L22.8758 29.0415L21.4309 23.6309C21.3081 23.1718 21.3725 22.6826 21.6099 22.271C21.8473 21.8595 22.2383 21.5592 22.6969 21.4362C23.1554 21.3133 23.644 21.3777 24.055 21.6155C24.4661 21.8532 24.766 22.2446 24.8888 22.7038L26.6155 29.1535L35.6852 34.3961V23.9086L30.8406 19.0601C30.5048 18.724 30.3162 18.268 30.3162 17.7926C30.3162 17.5572 30.3625 17.3241 30.4525 17.1066C30.5424 16.8891 30.6743 16.6915 30.8406 16.525C31.0068 16.3586 31.2042 16.2265 31.4214 16.1365C31.6386 16.0464 31.8714 16 32.1065 16C32.5813 16 33.0367 16.1889 33.3725 16.525L37.4745 20.6345L41.5766 16.525C41.9123 16.1889 42.3677 16 42.8425 16C43.3173 16 43.7727 16.1889 44.1085 16.525C44.4442 16.8612 44.6328 17.3172 44.6328 17.7926C44.6328 18.268 44.4442 18.724 44.1085 19.0601L39.2638 23.9086V34.3961L48.3335 29.1535L50.0602 22.7038C50.183 22.2446 50.4829 21.8532 50.894 21.6155C51.3051 21.3777 51.7936 21.3133 52.2522 21.4362C52.7107 21.5592 53.1017 21.8595 53.3391 22.271C53.5765 22.6826 53.6409 23.1718 53.5181 23.6309L52.0732 29.0303L57.5844 30.374C58.0212 30.4674 58.4073 30.721 58.6668 31.0849C58.9264 31.4488 59.0406 31.8968 58.9871 32.3408C58.9336 32.7848 58.7161 33.1927 58.3775 33.4843C58.0389 33.7759 57.6036 33.9302 57.1572 33.9168C57.0132 33.9173 56.8697 33.9 56.73 33.8653L50.143 32.2462L41.0532 37.5L50.143 42.7538L56.73 41.1347C56.9582 41.0785 57.1952 41.0678 57.4276 41.1034C57.6599 41.1389 57.883 41.2199 58.084 41.3418C58.2851 41.4636 58.4602 41.624 58.5993 41.8136C58.7385 42.0032 58.839 42.2185 58.8951 42.447Z" fill="#35B8EB"/>
</svg>
