<svg width="76" height="75" viewBox="0 0 76 75" fill="none" xmlns="http://www.w3.org/2000/svg">
<circle cx="38" cy="37.5" r="37.5" fill="#EAF7FC"/>
<path d="M36.9984 28.7203V28.759C36.9989 29.517 36.8707 30.2693 36.6194 30.983L36.6342 30.9367C36.3899 31.6321 35.9748 32.2526 35.4283 32.7394L35.4234 32.7432C34.9053 33.2169 34.2163 33.5057 33.4607 33.5057H33.4017H33.4041C32.4074 33.4999 31.4528 33.0963 30.7463 32.3819C29.9745 31.6621 29.374 30.7733 28.9904 29.7829L28.9744 29.7354C28.6026 28.7993 28.4068 27.8007 28.3973 26.7913V26.7476C28.3973 25.9675 28.5314 25.2187 28.7763 24.5236L28.7615 24.5699C29.0058 23.8745 29.4209 23.254 29.9674 22.7672L29.9723 22.7635C30.5284 22.2552 31.2548 21.9823 32.0026 22.0009H31.9989C32.996 22.0052 33.9511 22.4091 34.6568 23.1247C35.4209 23.8445 36.0163 24.7292 36.3991 25.7137L36.4151 25.7612C36.7707 26.6363 36.9811 27.6527 36.9922 28.7165V28.7203H36.9984ZM30.4214 38.1562L30.4227 38.2612C30.4241 39.2012 30.1382 40.1186 29.6044 40.8864L29.6142 40.8714C29.3708 41.2277 29.0462 41.5188 28.668 41.72C28.2898 41.9211 27.8693 42.0263 27.4424 42.0265L27.3206 42.024H27.3268C26.3182 42.0128 25.3488 41.6257 24.6025 40.9364L24.6062 40.9402C23.8122 40.2493 23.1701 39.3966 22.7213 38.4374C22.2726 37.4782 22.0272 36.4339 22.0012 35.3722V35.3622L22 35.2596C22 34.2783 22.3027 33.3682 22.8183 32.6219L22.8084 32.6369C23.0617 32.2608 23.4053 31.9565 23.8067 31.7531C24.2081 31.5496 24.6539 31.4537 25.1021 31.4743H25.0959C26.1045 31.4856 27.0739 31.8726 27.8202 32.5619L27.8165 32.5581C28.6117 33.2531 29.2544 34.1099 29.7031 35.0731C30.1518 36.0364 30.3966 37.0846 30.4214 38.1499V38.1587V38.1562ZM38.0025 37.6286C39.7989 37.7282 41.5195 38.3976 42.9219 39.5425L42.9047 39.5288C44.6214 40.7675 46.1006 42.3147 47.2692 44.0942L47.3086 44.158C48.3619 45.5957 48.9775 47.3154 49.0793 49.1047L49.0805 49.1297L49.083 49.2385C49.083 49.7435 48.9611 50.2211 48.7458 50.6398L48.7532 50.6236C48.5466 51.0076 48.2239 51.314 47.8328 51.4974L47.8205 51.5024C47.4624 51.6762 47.0453 51.8125 46.6097 51.8887L46.5802 51.8925C46.126 51.9652 45.6668 52.0012 45.2069 52H45.1147H45.1196C43.8517 51.9147 42.6079 51.6077 41.4429 51.0924L41.5143 51.1211C40.414 50.6337 39.2411 50.3375 38.0443 50.2448L38.0061 50.2423C36.6489 50.3448 35.3914 50.6548 34.2224 51.1411L34.3048 51.1111C33.0859 51.6085 31.7956 51.9015 30.4842 51.9787L30.4497 51.98C28.0987 51.9816 26.9232 51.032 26.9232 49.1309C26.9765 47.7989 27.3535 46.501 28.0208 45.3531L27.9998 45.3906C28.7197 44.0151 29.6242 42.7479 30.6872 41.6252L30.6823 41.6302C31.7214 40.5277 32.9096 39.581 34.2113 38.8187L34.2876 38.7775C35.3994 38.0727 36.6733 37.6758 37.9828 37.6261H37.9975L38.0025 37.6286ZM42.5983 33.507H42.5417C41.8161 33.5078 41.1159 33.2352 40.5766 32.7419L40.5791 32.7444C40.0369 32.2649 39.6237 31.6531 39.3781 30.9667L39.3683 30.9367C39.1242 30.2376 39.0005 29.5009 39.0028 28.759V28.7178V28.7203C39.0139 27.6514 39.2243 26.6363 39.5996 25.7062L39.5799 25.7612C39.9612 24.7601 40.5612 23.8599 41.3346 23.1285L41.3395 23.1247C42.0454 22.4103 42.9998 22.007 43.9961 22.0021H44.054C44.8095 22.0021 45.4986 22.2922 46.0191 22.7672L46.0166 22.7647C46.5555 23.2435 46.9715 23.8511 47.2176 24.5424L47.2274 24.5724C47.4624 25.2249 47.5978 25.9788 47.5978 26.7638V26.7888V26.7876C47.5871 27.8182 47.3846 28.8375 47.001 29.7916L47.0207 29.7366C46.6391 30.7433 46.0345 31.6471 45.2537 32.3781L45.2488 32.3831C44.5419 33.0957 43.588 33.4979 42.5922 33.5032H42.5909L42.5983 33.507ZM50.9041 31.4768L51.0173 31.4743C51.9168 31.4743 52.7104 31.9318 53.1854 32.6306L53.1916 32.6394C53.7202 33.4088 54.0025 34.3251 54 35.2634L53.9988 35.3709V35.3659C53.9745 36.427 53.731 37.471 53.2839 38.4302C52.8368 39.3895 52.1962 40.2425 51.4037 40.9339L51.3938 40.9427C50.6487 41.6294 49.6817 42.015 48.6757 42.0265H48.6732C48.2289 42.0468 47.7867 41.9526 47.3878 41.7526C46.9889 41.5526 46.6463 41.2533 46.3919 40.8827L46.3857 40.8739C45.8361 40.0788 45.553 39.125 45.5785 38.1537V38.1587C45.6021 37.0939 45.8452 36.0459 46.2922 35.0825C46.7392 34.1191 47.3802 33.2617 48.1736 32.5656L48.1835 32.5569C48.9278 31.8723 49.8927 31.4877 50.8967 31.4755H50.8992L50.9041 31.4768Z" fill="#05AEEF"/>
</svg>
