<svg width="76" height="75" viewBox="0 0 76 75" fill="none" xmlns="http://www.w3.org/2000/svg">
<circle cx="38" cy="37.5" r="37.5" fill="#EAF7FC"/>
<path d="M29.3216 32.544L38.4973 35.0023L47.6731 37.4605L56.8479 39.9188C59.0687 31.6312 55.4506 23.1536 48.5147 18.8545C46.9315 17.8745 45.2128 17.1327 43.4139 16.6527C41.349 16.0966 39.205 15.8936 37.0725 16.0524C29.2484 16.6413 22.2925 22.0764 20.1477 30.0848L29.3225 32.5431L29.3216 32.544Z" stroke="#35B8EB" stroke-width="3" stroke-linecap="round" stroke-linejoin="round"/>
<path d="M31.1578 33.0352C31.1578 33.0352 31.9281 28.3248 34.9924 24.229C38.0567 20.1331 43.414 16.6519 43.414 16.6519C43.414 16.6519 46.3139 22.3463 46.9199 27.4253C47.526 32.5043 45.8371 36.9687 45.8371 36.9687M20.1478 30.0859L29.3226 32.5442L38.4974 35.0024M38.4974 35.0024L47.6713 37.4607L56.847 39.919M38.4974 35.0024L33.2731 53.9998M19.5 53.9998H57.4948" stroke="#35B8EB" stroke-width="3" stroke-linecap="round" stroke-linejoin="round"/>
<path d="M37.0725 16.0533C39.2049 15.8939 41.3489 16.0962 43.4139 16.6517C45.2129 17.1323 46.9316 17.8748 48.5147 18.8554" stroke="#35B8EB" stroke-width="3" stroke-linecap="round" stroke-linejoin="round"/>
</svg>
