<svg width="37" height="32" viewBox="0 0 37 32" fill="none" xmlns="http://www.w3.org/2000/svg">
<path d="M13.875 22.2222L26.825 14.2222L13.875 6.22222V22.2222ZM11.1 32V28.4444H3.7C2.6825 28.4444 1.81115 28.096 1.08595 27.3991C0.360753 26.7022 -0.00123019 25.8655 3.14092e-06 24.8889V3.55556C3.14092e-06 2.57778 0.362603 1.74045 1.0878 1.04356C1.813 0.346669 2.68374 -0.00118217 3.7 3.0183e-06H33.3C34.3175 3.0183e-06 35.1888 0.348448 35.914 1.04534C36.6392 1.74223 37.0012 2.57897 37 3.55556V24.8889C37 25.8667 36.6374 26.704 35.9122 27.4009C35.187 28.0978 34.3163 28.4456 33.3 28.4444H25.9V32H11.1ZM3.7 24.8889H33.3V3.55556H3.7V24.8889Z" fill="#35B8EB"/>
</svg>
