<svg width="75" height="75" viewBox="0 0 75 75" fill="none" xmlns="http://www.w3.org/2000/svg">
<circle cx="37.5" cy="37.5" r="37.5" fill="#EAF7FC"/>
<path d="M37.998 45.0053C36.6378 45.0053 35.3081 45.4157 34.177 46.1846C33.046 46.9534 32.1645 48.0463 31.644 49.3249C31.1234 50.6035 30.9872 52.0104 31.2526 53.3678C31.518 54.7251 32.173 55.9719 33.1348 56.9505C34.0967 57.9291 35.3222 58.5956 36.6563 58.8655C37.9904 59.1355 39.3733 58.997 40.63 58.4674C41.8867 57.9377 42.9609 57.0409 43.7166 55.8902C44.4723 54.7395 44.8757 53.3866 44.8757 52.0026C44.8757 50.1468 44.1511 48.367 42.8613 47.0548C41.5715 45.7425 39.8221 45.0053 37.998 45.0053ZM37.998 54.3351C37.5446 54.3351 37.1014 54.1983 36.7244 53.942C36.3474 53.6857 36.0535 53.3214 35.88 52.8952C35.7065 52.469 35.6611 52 35.7496 51.5476C35.838 51.0951 36.0564 50.6795 36.377 50.3533C36.6976 50.0271 37.1061 49.805 37.5508 49.715C37.9955 49.625 38.4565 49.6712 38.8754 49.8477C39.2943 50.0243 39.6523 50.3232 39.9042 50.7068C40.1561 51.0904 40.2906 51.5413 40.2906 52.0026C40.2906 52.6212 40.049 53.2145 39.6191 53.6519C39.1892 54.0894 38.6061 54.3351 37.998 54.3351ZM37.998 35.6755C33.7448 35.6904 29.6682 37.4081 26.65 40.457C26.223 40.894 25.9833 41.4852 25.9833 42.1014C25.9833 42.7176 26.223 43.3087 26.65 43.7458C27.0795 44.1802 27.6606 44.424 28.2662 44.424C28.8719 44.424 29.4529 44.1802 29.8825 43.7458C30.9472 42.6597 32.2122 41.798 33.6048 41.2101C34.9974 40.6222 36.4903 40.3195 37.998 40.3195C39.5058 40.3195 40.9987 40.6222 42.3913 41.2101C43.7839 41.798 45.0488 42.6597 46.1136 43.7458C46.5369 44.1852 47.1137 44.4367 47.7184 44.4455C48.1836 44.4727 48.6458 44.3551 49.0436 44.1084C49.4414 43.8616 49.7559 43.4974 49.9451 43.0642C50.1343 42.631 50.1893 42.1495 50.1028 41.6837C50.0163 41.2179 49.7923 40.79 49.4607 40.457C47.9523 38.9332 46.1636 37.7267 44.1968 36.9062C42.2301 36.0858 40.1237 35.6676 37.998 35.6755ZM37.998 26.3457C31.313 26.3637 24.9044 29.0623 20.1621 33.8562C19.9483 34.0736 19.7788 34.3318 19.6631 34.616C19.5474 34.9001 19.4879 35.2046 19.4879 35.5122C19.4879 36.1333 19.7304 36.729 20.1621 37.1682C20.5938 37.6075 21.1793 37.8542 21.7898 37.8542C22.4003 37.8542 22.9858 37.6075 23.4175 37.1682C27.2862 33.2371 32.5303 31.029 37.998 31.029C43.4658 31.029 48.7099 33.2371 52.5786 37.1682C52.7928 37.3844 53.0469 37.5554 53.3262 37.6715C53.6055 37.7876 53.9046 37.8464 54.2063 37.8447C54.508 37.8464 54.8071 37.7876 55.0864 37.6715C55.3657 37.5554 55.6198 37.3844 55.834 37.1682C56.0489 36.9514 56.2194 36.6934 56.3358 36.4092C56.4522 36.125 56.5121 35.8201 56.5121 35.5122C56.5121 35.2043 56.4522 34.8994 56.3358 34.6152C56.2194 34.331 56.0489 34.073 55.834 33.8562C51.0917 29.0623 44.6831 26.3637 37.998 26.3457ZM62.3219 27.2553C59.1284 24.0041 55.3365 21.425 51.1629 19.6654C46.9893 17.9057 42.5158 17 37.998 17C33.4803 17 29.0068 17.9057 24.8332 19.6654C20.6596 21.425 16.8677 24.0041 13.6742 27.2553C13.2425 27.6945 13 28.2902 13 28.9114C13 29.5325 13.2425 30.1282 13.6742 30.5674C14.1059 31.0066 14.6914 31.2534 15.3019 31.2534C15.9124 31.2534 16.4979 31.0066 16.9296 30.5674C22.5183 24.8844 30.0965 21.6919 37.998 21.6919C45.8996 21.6919 53.4778 24.8844 59.0665 30.5674C59.2796 30.786 59.5331 30.9595 59.8125 31.078C60.0919 31.1964 60.3915 31.2573 60.6942 31.2573C60.9968 31.2573 61.2965 31.1964 61.5758 31.078C61.8552 30.9595 62.1088 30.786 62.3219 30.5674C62.5368 30.3506 62.7073 30.0926 62.8237 29.8084C62.9401 29.5241 63 29.2193 63 28.9114C63 28.6035 62.9401 28.2986 62.8237 28.0144C62.7073 27.7301 62.5368 27.4722 62.3219 27.2553Z" fill="#35B8EB"/>
</svg>
