<svg width="50" height="42" viewBox="0 0 50 42" fill="none" xmlns="http://www.w3.org/2000/svg">
<path d="M24.998 28.0053C23.6378 28.0053 22.3081 28.4157 21.177 29.1846C20.046 29.9534 19.1645 31.0463 18.644 32.3249C18.1234 33.6035 17.9872 35.0104 18.2526 36.3678C18.518 37.7251 19.173 38.9719 20.1348 39.9505C21.0967 40.9291 22.3222 41.5956 23.6563 41.8655C24.9904 42.1355 26.3733 41.997 27.63 41.4674C28.8867 40.9377 29.9609 40.0409 30.7166 38.8902C31.4723 37.7395 31.8757 36.3866 31.8757 35.0026C31.8757 33.1468 31.1511 31.367 29.8613 30.0548C28.5715 28.7425 26.8221 28.0053 24.998 28.0053ZM24.998 37.3351C24.5446 37.3351 24.1014 37.1983 23.7244 36.942C23.3474 36.6857 23.0535 36.3214 22.88 35.8952C22.7065 35.469 22.6611 35 22.7496 34.5476C22.838 34.0951 23.0564 33.6795 23.377 33.3533C23.6976 33.0271 24.1061 32.805 24.5508 32.715C24.9955 32.625 25.4565 32.6712 25.8754 32.8477C26.2943 33.0243 26.6523 33.3232 26.9042 33.7068C27.1561 34.0904 27.2906 34.5413 27.2906 35.0026C27.2906 35.6212 27.049 36.2145 26.6191 36.6519C26.1892 37.0894 25.6061 37.3351 24.998 37.3351ZM24.998 18.6755C20.7448 18.6904 16.6682 20.4081 13.65 23.457C13.223 23.894 12.9833 24.4852 12.9833 25.1014C12.9833 25.7176 13.223 26.3087 13.65 26.7458C14.0795 27.1802 14.6606 27.424 15.2662 27.424C15.8719 27.424 16.4529 27.1802 16.8825 26.7458C17.9472 25.6597 19.2122 24.798 20.6048 24.2101C21.9974 23.6222 23.4903 23.3195 24.998 23.3195C26.5058 23.3195 27.9987 23.6222 29.3913 24.2101C30.7839 24.798 32.0488 25.6597 33.1136 26.7458C33.5369 27.1852 34.1137 27.4367 34.7184 27.4455C35.1836 27.4727 35.6458 27.3551 36.0436 27.1084C36.4414 26.8616 36.7559 26.4974 36.9451 26.0642C37.1343 25.631 37.1893 25.1495 37.1028 24.6837C37.0163 24.2179 36.7923 23.79 36.4607 23.457C34.9523 21.9332 33.1636 20.7267 31.1968 19.9062C29.2301 19.0858 27.1237 18.6676 24.998 18.6755ZM24.998 9.34566C18.313 9.36374 11.9044 12.0623 7.1621 16.8562C6.94835 17.0736 6.77879 17.3318 6.66311 17.616C6.54742 17.9001 6.48788 18.2046 6.48788 18.5122C6.48788 19.1333 6.73041 19.729 7.1621 20.1682C7.59379 20.6075 8.17929 20.8542 8.7898 20.8542C9.40031 20.8542 9.98581 20.6075 10.4175 20.1682C14.2862 16.2371 19.5303 14.029 24.998 14.029C30.4658 14.029 35.7099 16.2371 39.5786 20.1682C39.7928 20.3844 40.0469 20.5554 40.3262 20.6715C40.6055 20.7876 40.9046 20.8464 41.2063 20.8447C41.508 20.8464 41.8071 20.7876 42.0864 20.6715C42.3657 20.5554 42.6198 20.3844 42.834 20.1682C43.0489 19.9514 43.2194 19.6934 43.3358 19.4092C43.4522 19.125 43.5121 18.8201 43.5121 18.5122C43.5121 18.2043 43.4522 17.8994 43.3358 17.6152C43.2194 17.331 43.0489 17.073 42.834 16.8562C38.0917 12.0623 31.6831 9.36374 24.998 9.34566ZM49.3219 10.2553C46.1284 7.00412 42.3365 4.42501 38.1629 2.66536C33.9893 0.905702 29.5158 0 24.998 0C20.4803 0 16.0068 0.905702 11.8332 2.66536C7.65962 4.42501 3.86773 7.00412 0.674216 10.2553C0.242523 10.6945 0 11.2902 0 11.9114C0 12.5325 0.242523 13.1282 0.674216 13.5674C1.10591 14.0066 1.69141 14.2534 2.30192 14.2534C2.91242 14.2534 3.49793 14.0066 3.92962 13.5674C9.51832 7.88436 17.0965 4.6919 24.998 4.6919C32.8996 4.6919 40.4778 7.88436 46.0665 13.5674C46.2796 13.786 46.5331 13.9595 46.8125 14.078C47.0919 14.1964 47.3915 14.2573 47.6942 14.2573C47.9968 14.2573 48.2965 14.1964 48.5758 14.078C48.8552 13.9595 49.1088 13.786 49.3219 13.5674C49.5368 13.3506 49.7073 13.0926 49.8237 12.8084C49.9401 12.5241 50 12.2193 50 11.9114C50 11.6035 49.9401 11.2986 49.8237 11.0144C49.7073 10.7301 49.5368 10.4722 49.3219 10.2553Z" fill="#35B8EB"/>
</svg>
