<svg width="11" height="19" viewBox="0 0 11 19" fill="none" xmlns="http://www.w3.org/2000/svg">
<path d="M2.84212 18.2831L10.7421 10.0151C10.8359 9.91665 10.9022 9.81002 10.9409 9.69519C10.9803 9.58036 11 9.45732 11 9.32608C11 9.19484 10.9803 9.07181 10.9409 8.95698C10.9022 8.84214 10.8359 8.73551 10.7421 8.63708L2.84212 0.344499C2.62333 0.114833 2.34983 0 2.02164 0C1.69345 0 1.41215 0.123035 1.17772 0.369106C0.943303 0.615177 0.826092 0.902259 0.826092 1.23035C0.826092 1.55845 0.943303 1.84553 1.17772 2.0916L8.06973 9.32608L1.17772 16.5606C0.958931 16.7902 0.849534 17.073 0.849534 17.409C0.849534 17.7456 0.966745 18.037 1.20117 18.2831C1.43559 18.5291 1.70908 18.6522 2.02164 18.6522C2.33421 18.6522 2.6077 18.5291 2.84212 18.2831Z" fill="white"/>
</svg>
