<svg width="33" height="26" viewBox="0 0 33 26" fill="none" xmlns="http://www.w3.org/2000/svg">
<path d="M5.4 1.74942C6.2 0.703787 7 0.140756 7.8 0.0603236C8.68 -0.100541 9.4 0.060326 9.96 0.542923C10.6 0.945088 10.96 1.58855 11.04 2.47331C11.12 3.35808 10.76 4.32328 9.96 5.3689C8.68 7.058 7.76 8.78732 7.2 10.5568C6.72 12.2459 6.48 13.8144 6.48 15.2622L6.12 12.8492C8.2 12.8492 9.88 13.4524 11.16 14.6589C12.44 15.785 13.08 17.3534 13.08 19.3643C13.08 21.2947 12.48 22.9033 11.28 24.1903C10.08 25.3968 8.52 26 6.6 26C4.52 26 2.88 25.3163 1.68 23.949C0.56 22.5012 0 20.4501 0 17.7958C0 16.1067 0.12 14.3774 0.36 12.6079C0.68 10.7579 1.24 8.90797 2.04 7.05801C2.92 5.20805 4.04 3.43852 5.4 1.74942ZM25.32 1.74942C26.12 0.703787 26.92 0.140756 27.72 0.0603236C28.6 -0.100541 29.32 0.060326 29.88 0.542923C30.52 0.945088 30.88 1.58855 30.96 2.47331C31.04 3.35808 30.68 4.32328 29.88 5.3689C28.6 7.058 27.68 8.78732 27.12 10.5568C26.64 12.2459 26.4 13.8144 26.4 15.2622L26.04 12.8492C28.12 12.8492 29.8 13.4524 31.08 14.6589C32.36 15.785 33 17.3534 33 19.3643C33 21.2947 32.4 22.9033 31.2 24.1903C30 25.3968 28.44 26 26.52 26C24.44 26 22.8 25.3163 21.6 23.949C20.48 22.5012 19.92 20.4501 19.92 17.7958C19.92 16.1067 20.04 14.3774 20.28 12.6079C20.6 10.7579 21.16 8.90797 21.96 7.05801C22.84 5.20805 23.96 3.43852 25.32 1.74942Z" fill="#35B8EB"/>
</svg>
