<svg width="12" height="19" viewBox="0 0 12 19" fill="none" xmlns="http://www.w3.org/2000/svg">
<path d="M9.02751 18.4569L1.12749 10.1889C1.03372 10.0905 0.967461 9.98385 0.928703 9.86902C0.88932 9.75418 0.869629 9.63115 0.869629 9.49991C0.869629 9.36867 0.88932 9.24564 0.928703 9.1308C0.967461 9.01597 1.03372 8.90934 1.12749 8.81091L9.02751 0.518327C9.2463 0.288661 9.5198 0.173828 9.84799 0.173828C10.1762 0.173828 10.4575 0.296864 10.6919 0.542934C10.9263 0.789005 11.0435 1.07609 11.0435 1.40418C11.0435 1.73228 10.9263 2.01936 10.6919 2.26543L3.7999 9.49991L10.6919 16.7344C10.9107 16.9641 11.0201 17.2469 11.0201 17.5828C11.0201 17.9195 10.9029 18.2108 10.6685 18.4569C10.434 18.703 10.1605 18.826 9.84799 18.826C9.53542 18.826 9.26193 18.703 9.02751 18.4569Z" fill="black"/>
</svg>
