<svg width="28" height="27" viewBox="0 0 28 27" fill="none" xmlns="http://www.w3.org/2000/svg">
<path d="M18.6812 17.6667C18.6812 16.3512 14.987 15.2857 10.43 15.2857M18.6812 17.6667C18.6812 18.9821 14.987 20.0476 10.43 20.0476C5.87295 20.0476 2.17875 18.9821 2.17875 17.6667M18.6812 17.6667V23.544C18.6812 24.9 14.987 26 10.43 26C5.87295 26 2.17875 24.9012 2.17875 23.544V17.6667M18.6812 17.6667C23.1888 17.6667 26.9325 16.4917 26.9325 15.2857V3.38095M10.43 15.2857C5.87295 15.2857 2.17875 16.3512 2.17875 17.6667M10.43 15.2857C5.22228 15.2857 1 14.1107 1 12.9048V6.95238M10.43 4.57143C5.22228 4.57143 1 5.6369 1 6.95238M1 6.95238C1 8.26786 5.22228 9.33333 10.43 9.33333C10.43 10.5393 14.2645 11.7143 18.772 11.7143C23.2783 11.7143 26.9325 10.5393 26.9325 9.33333M26.9325 3.38095C26.9325 2.06548 23.2783 1 18.772 1C14.2645 1 10.6115 2.06548 10.6115 3.38095M26.9325 3.38095C26.9325 4.69643 23.2783 5.7619 18.772 5.7619C14.2656 5.7619 10.6115 4.69643 10.6115 3.38095M10.6115 3.38095V15.4833" stroke="#05AEEF" stroke-width="2"/>
</svg>
