<svg width="24" height="22" viewBox="0 0 24 22" fill="none" xmlns="http://www.w3.org/2000/svg">
<path d="M11.2196 4.9282V4.95662C11.22 5.51245 11.1241 6.06418 10.9361 6.58752L10.9471 6.5536C10.7644 7.06357 10.4539 7.51861 10.0451 7.87556L10.0414 7.87831C9.65385 8.22576 9.13839 8.43753 8.57322 8.43753H8.52904H8.53088C7.78524 8.43327 7.07116 8.13727 6.54268 7.61337C5.96532 7.08554 5.51614 6.43378 5.22917 5.70744L5.2172 5.6726C4.93905 4.98616 4.79262 4.25385 4.7855 3.51365V3.48156C4.7855 2.90951 4.88584 2.36037 5.06901 1.85066L5.05796 1.88458C5.24071 1.37461 5.55121 0.919578 5.96002 0.562622L5.9637 0.559871C6.37967 0.187125 6.92309 -0.0129624 7.48247 0.000651822H7.47971C8.22557 0.00382692 8.94005 0.299995 9.46792 0.824813C10.0395 1.3526 10.4849 2.00141 10.7713 2.72341L10.7833 2.75825C11.0493 3.39997 11.2067 4.14529 11.215 4.92545V4.9282H11.2196ZM6.29967 11.8479L6.30059 11.9249C6.3017 12.6142 6.08781 13.287 5.68848 13.85L5.69585 13.839C5.51376 14.1003 5.27089 14.3138 4.98799 14.4613C4.70509 14.6088 4.39055 14.6859 4.07122 14.6861L3.9801 14.6843H3.9847C3.23024 14.676 2.50507 14.3922 1.94679 13.8867L1.94955 13.8895C1.35564 13.3828 0.875267 12.7575 0.539575 12.0541C0.203883 11.3507 0.0203655 10.5848 0.000920466 9.80624V9.79891L0 9.72374C0 9.00409 0.226435 8.33669 0.61211 7.78939L0.604746 7.80039C0.7942 7.52455 1.05123 7.30146 1.35149 7.15226C1.65175 7.00306 1.98529 6.93268 2.3205 6.94781H2.31589C3.07036 6.95607 3.79552 7.23988 4.35381 7.74538L4.35105 7.74263C4.94587 8.25228 5.42667 8.88061 5.76233 9.58697C6.098 10.2933 6.28106 11.062 6.29967 11.8433V11.8497V11.8479ZM11.9707 11.461C13.3145 11.534 14.6016 12.0249 15.6507 12.8645L15.6378 12.8544C16.922 13.7628 18.0285 14.8975 18.9027 16.2024L18.9322 16.2492C19.7201 17.3035 20.1806 18.5647 20.2567 19.8768L20.2576 19.8951L20.2595 19.9749C20.2595 20.3452 20.1683 20.6954 20.0073 21.0026L20.0128 20.9906C19.8582 21.2723 19.6168 21.4969 19.3243 21.6314L19.3151 21.6351C19.0472 21.7625 18.7352 21.8625 18.4093 21.9184L18.3872 21.9211C18.0475 21.9745 17.704 22.0009 17.36 22H17.291H17.2946C16.3462 21.9374 15.4158 21.7123 14.5443 21.3344L14.5977 21.3555C13.7747 20.9981 12.8972 20.7808 12.002 20.7129L11.9734 20.711C10.9582 20.7862 10.0174 21.0136 9.14299 21.3702L9.20466 21.3482C8.29283 21.7129 7.32759 21.9278 6.34662 21.9844L6.32084 21.9853C4.56214 21.9865 3.68279 21.2901 3.68279 19.896C3.72264 18.9192 4.00472 17.9674 4.50384 17.1256L4.48819 17.1531C5.0267 16.1444 5.70327 15.2151 6.49849 14.3918L6.49481 14.3955C7.27208 13.587 8.16096 12.8927 9.13471 12.3337L9.19178 12.3035C10.0234 11.7867 10.9764 11.4956 11.9559 11.4592H11.967L11.9707 11.461ZM15.4086 8.43845H15.3663C14.8234 8.43903 14.2997 8.23913 13.8963 7.8774L13.8981 7.87923C13.4926 7.52756 13.1834 7.07897 12.9997 6.57561L12.9924 6.5536C12.8098 6.04088 12.7173 5.50064 12.719 4.95662V4.92637V4.9282C12.7273 4.14438 12.8847 3.39997 13.1654 2.71791L13.1507 2.75825C13.4359 2.02405 13.8847 1.36391 14.4633 0.827563L14.467 0.824813C14.995 0.30089 15.7089 0.005137 16.4543 0.00156858H16.4975C17.0627 0.00156858 17.5781 0.214255 17.9675 0.562622L17.9657 0.560788C18.3688 0.911905 18.6799 1.35745 18.864 1.86441L18.8714 1.88641C19.0472 2.36496 19.1485 2.91776 19.1485 3.49348V3.51182V3.5109C19.1405 4.26669 18.989 5.01415 18.702 5.71386L18.7168 5.67352C18.4313 6.41172 17.979 7.07455 17.395 7.61062L17.3913 7.61429C16.8625 8.13687 16.1489 8.43183 15.404 8.4357H15.4031L15.4086 8.43845ZM21.6218 6.94964L21.7064 6.94781C22.3793 6.94781 22.973 7.28334 23.3283 7.7958L23.3329 7.80222C23.7283 8.36646 23.9395 9.03839 23.9377 9.72649L23.9367 9.80533V9.80166C23.9186 10.5798 23.7364 11.3454 23.402 12.0488C23.0675 12.7523 22.5883 13.3778 21.9955 13.8849L21.9881 13.8913C21.4307 14.3949 20.7073 14.6777 19.9548 14.6861H19.953C19.6206 14.701 19.2898 14.6319 18.9914 14.4852C18.693 14.3386 18.4367 14.1191 18.2464 13.8473L18.2418 13.8409C17.8306 13.2578 17.6189 12.5583 17.638 11.846V11.8497C17.6556 11.0688 17.8375 10.3003 18.1719 9.59386C18.5062 8.88737 18.9857 8.25859 19.5792 7.74813L19.5866 7.74172C20.1434 7.23968 20.8652 6.95766 21.6162 6.94872H21.6181L21.6218 6.94964Z" fill="#05AEEF"/>
</svg>
