<svg width="18" height="18" viewBox="0 0 18 18" fill="none" xmlns="http://www.w3.org/2000/svg">
<path d="M11.8327 9L17.3617 3.45662C18.1504 2.66586 18.1504 1.38382 17.3617 0.593066C16.573 -0.197689 15.2944 -0.197689 14.5056 0.593066L8.97662 6.13645L3.44764 0.593066C2.65894 -0.197689 1.38023 -0.197689 0.591526 0.593066C-0.197175 1.38382 -0.197175 2.66586 0.591526 3.45662L6.12051 9L0.591526 14.5434C-0.197175 15.3341 -0.197175 16.6162 0.591526 17.4069C0.985876 17.8023 1.50272 18 2.01956 18C2.53641 18 3.05329 17.8023 3.4476 17.4069L8.97662 11.8636L14.5056 17.4069C14.9 17.8023 15.4168 18 15.9336 18C16.4505 18 16.9673 17.8023 17.3617 17.4069C18.1504 16.6162 18.1504 15.3341 17.3617 14.5434L11.8327 9Z" fill="#05AEEF"/>
</svg>
