<svg width="33" height="26" viewBox="0 0 33 26" fill="none" xmlns="http://www.w3.org/2000/svg">
<path d="M27.6 24.0885C26.8 25.1271 26 25.6864 25.2 25.7663C24.32 25.926 23.6 25.7662 23.04 25.2869C22.4 24.8874 22.04 24.2482 21.96 23.3694C21.88 22.4906 22.24 21.5318 23.04 20.4932C24.32 18.8154 25.24 17.0976 25.8 15.3399C26.28 13.6621 26.52 12.1042 26.52 10.6661L26.88 13.0629C24.8 13.0629 23.12 12.4637 21.84 11.2653C20.56 10.1468 19.92 8.58881 19.92 6.59143C19.92 4.67395 20.52 3.07604 21.72 1.79772C22.92 0.599298 24.48 8.50858e-05 26.4 8.52537e-05C28.48 8.54355e-05 30.12 0.679195 31.32 2.03741C32.44 3.47552 33 5.51285 33 8.14938C33 9.82718 32.88 11.5449 32.64 13.3026C32.32 15.1402 31.76 16.9778 30.96 18.8154C30.08 20.653 28.96 22.4107 27.6 24.0885ZM7.67999 24.0885C6.88 25.1271 6.08 25.6864 5.28 25.7662C4.4 25.926 3.68 25.7662 3.12 25.2869C2.48 24.8874 2.12 24.2482 2.04 23.3694C1.96 22.4905 2.32 21.5318 3.12 20.4932C4.4 18.8154 5.32 17.0976 5.88 15.3399C6.36 13.6621 6.6 12.1042 6.6 10.6661L6.96 13.0629C4.88 13.0629 3.2 12.4637 1.92 11.2653C0.640001 10.1468 1.50694e-06 8.58881 1.68155e-06 6.59143C1.84919e-06 4.67394 0.6 3.07604 1.8 1.79772C3 0.599296 4.56 8.33444e-05 6.48 8.35122e-05C8.56 8.36941e-05 10.2 0.679193 11.4 2.03741C12.52 3.47552 13.08 5.51284 13.08 8.14938C13.08 9.82718 12.96 11.5449 12.72 13.3026C12.4 15.1402 11.84 16.9778 11.04 18.8154C10.16 20.653 9.04 22.4107 7.67999 24.0885Z" fill="#35B8EB"/>
</svg>
