<svg width="41" height="42" viewBox="0 0 41 42" fill="none" xmlns="http://www.w3.org/2000/svg">
<path d="M11.3216 18.544L20.4973 21.0023L29.6731 23.4605L38.8479 25.9188C41.0687 17.6312 37.4506 9.15359 30.5147 4.85447C28.9315 3.87454 27.2128 3.13268 25.4139 2.65267C23.349 2.09656 21.205 1.89359 19.0725 2.05235C11.2484 2.64127 4.29251 8.07643 2.14771 16.0848L11.3225 18.5431L11.3216 18.544Z" stroke="#35B8EB" stroke-width="3" stroke-linecap="round" stroke-linejoin="round"/>
<path d="M13.1578 19.0352C13.1578 19.0352 13.9281 14.3248 16.9924 10.229C20.0567 6.13313 25.414 2.65186 25.414 2.65186C25.414 2.65186 28.3139 8.34634 28.9199 13.4253C29.526 18.5043 27.8371 22.9687 27.8371 22.9687M2.14781 16.0859L11.3226 18.5442L20.4974 21.0024M20.4974 21.0024L29.6713 23.4607L38.847 25.919M20.4974 21.0024L15.2731 39.9998M1.5 39.9998H39.4948" stroke="#35B8EB" stroke-width="3" stroke-linecap="round" stroke-linejoin="round"/>
<path d="M19.0725 2.05325C21.2049 1.89387 23.3489 2.0962 25.4139 2.65167C27.2129 3.13227 28.9316 3.87478 30.5147 4.85537" stroke="#35B8EB" stroke-width="3" stroke-linecap="round" stroke-linejoin="round"/>
</svg>
