<svg width="75" height="75" viewBox="0 0 75 75" fill="none" xmlns="http://www.w3.org/2000/svg">
<circle cx="37.5" cy="37.5" r="37.5" fill="#EAF7FC"/>
<path d="M32.875 44.2222L45.825 36.2222L32.875 28.2222V44.2222ZM30.1 54V50.4444H22.7C21.6825 50.4444 20.8112 50.096 20.086 49.3991C19.3608 48.7022 18.9988 47.8655 19 46.8889V25.5556C19 24.5778 19.3626 23.7404 20.0878 23.0436C20.813 22.3467 21.6837 21.9988 22.7 22H52.3C53.3175 22 54.1888 22.3484 54.914 23.0453C55.6392 23.7422 56.0012 24.579 56 25.5556V46.8889C56 47.8667 55.6374 48.704 54.9122 49.4009C54.187 50.0978 53.3163 50.4456 52.3 50.4444H44.9V54H30.1ZM22.7 46.8889H52.3V25.5556H22.7V46.8889Z" fill="#35B8EB"/>
</svg>
