<svg width="75" height="75" viewBox="0 0 75 75" fill="none" xmlns="http://www.w3.org/2000/svg">
<circle cx="37.5" cy="37.5" r="37.5" fill="#EAF7FC"/>
<path d="M37 57C37 57 53 45 53 32C53 23.716 45.837 17 37 17C28.163 17 21 23.716 21 32C21 45 37 57 37 57Z" stroke="#35B8EB" stroke-width="4" stroke-linejoin="round"/>
<path d="M34 27V43" stroke="#35B8EB" stroke-width="4" stroke-linecap="round" stroke-linejoin="round"/>
<path d="M34 27H40C41.0609 27 42.0783 27.4214 42.8284 28.1716C43.5786 28.9217 44 29.9391 44 31C44 32.0609 43.5786 33.0783 42.8284 33.8284C42.0783 34.5786 41.0609 35 40 35H34V27Z" stroke="#35B8EB" stroke-width="4" stroke-linejoin="round"/>
</svg>
