<svg width="32" height="30" viewBox="0 0 32 30" fill="none" xmlns="http://www.w3.org/2000/svg">
<path d="M14.9984 6.72027V6.75903C14.9989 7.51698 14.8707 8.26933 14.6194 8.98299L14.6342 8.93673C14.3899 9.63214 13.9748 10.2526 13.4283 10.7394L13.4234 10.7432C12.9053 11.2169 12.2163 11.5057 11.4607 11.5057H11.4017H11.4041C10.4074 11.4999 9.45277 11.0963 8.74628 10.3819C7.97447 9.66211 7.37401 8.77333 6.99038 7.78287L6.97439 7.73537C6.60256 6.79931 6.40681 5.80071 6.39729 4.79134V4.74759C6.39729 3.96751 6.53141 3.21869 6.77628 2.52363L6.76151 2.56988C7.00581 1.87447 7.42089 1.25397 7.96739 0.767211L7.97231 0.763461C8.52838 0.255171 9.25482 -0.017676 10.0026 0.000888848H9.99892C10.996 0.00521853 11.9511 0.409084 12.6568 1.12474C13.4209 1.84446 14.0163 2.72919 14.3991 3.71374L14.4151 3.76124C14.7707 4.63633 14.9811 5.65267 14.9922 6.71652V6.72027H14.9984ZM8.42144 16.1562L8.42267 16.2612C8.42414 17.2012 8.13822 18.1186 7.60439 18.8864L7.61424 18.8714C7.37082 19.2277 7.04616 19.5188 6.66797 19.72C6.28979 19.9211 5.86931 20.0263 5.44243 20.0265L5.32062 20.024H5.32677C4.3182 20.0128 3.34879 19.6257 2.60247 18.9364L2.60617 18.9402C1.81223 18.2493 1.17006 17.3966 0.721307 16.4374C0.272552 15.4782 0.0272247 14.4339 0.00123048 13.3722V13.3622L0 13.2596C0 12.2783 0.302699 11.3682 0.818272 10.6219L0.808428 10.6369C1.06169 10.2608 1.40529 9.95654 1.80668 9.75308C2.20807 9.54962 2.65394 9.45366 3.10205 9.47428H3.0959C4.10447 9.48556 5.07388 9.87257 5.82019 10.5619L5.8165 10.5581C6.61167 11.2531 7.2544 12.1099 7.70312 13.0731C8.15184 14.0364 8.39655 15.0846 8.42144 16.1499V16.1587V16.1562ZM16.0025 15.6286C17.7989 15.7282 19.5195 16.3976 20.9219 17.5425L20.9047 17.5288C22.6214 18.7675 24.1006 20.3147 25.2692 22.0942L25.3086 22.158C26.3619 23.5957 26.9775 25.3154 27.0793 27.1047L27.0805 27.1297L27.083 27.2385C27.083 27.7435 26.9611 28.2211 26.7458 28.6398L26.7532 28.6236C26.5466 29.0076 26.2239 29.314 25.8328 29.4974L25.8205 29.5024C25.4624 29.6762 25.0453 29.8125 24.6097 29.8887L24.5802 29.8925C24.126 29.9652 23.6668 30.0012 23.2069 30H23.1147H23.1196C21.8517 29.9147 20.6079 29.6077 19.4429 29.0924L19.5143 29.1211C18.414 28.6337 17.2411 28.3375 16.0443 28.2448L16.0061 28.2423C14.6489 28.3448 13.3914 28.6548 12.2224 29.1411L12.3048 29.1111C11.0859 29.6085 9.79557 29.9015 8.48419 29.9787L8.44974 29.98C6.09869 29.9816 4.92317 29.032 4.92317 27.1309C4.97645 25.7989 5.35354 24.501 6.02076 23.3531L5.99984 23.3906C6.71973 22.0151 7.62416 20.7479 8.68722 19.6252L8.6823 19.6302C9.72136 18.5277 10.9096 17.581 12.2113 16.8187L12.2876 16.7775C13.3994 16.0727 14.6733 15.6758 15.9828 15.6261H15.9975L16.0025 15.6286ZM20.5983 11.507H20.5417C19.8161 11.5078 19.1159 11.2352 18.5766 10.7419L18.5791 10.7444C18.0369 10.2649 17.6237 9.65313 17.3781 8.96673L17.3683 8.93673C17.1242 8.23757 17.0005 7.50087 17.0028 6.75903V6.71777V6.72027C17.0139 5.65142 17.2243 4.63633 17.5996 3.70624L17.5799 3.76124C17.9612 2.76007 18.5612 1.85988 19.3346 1.1285L19.3395 1.12474C20.0454 0.410304 20.9998 0.007005 21.9961 0.00213897H22.054C22.8095 0.00213897 23.4986 0.292166 24.0191 0.767211L24.0166 0.764711C24.5555 1.24351 24.9715 1.85106 25.2176 2.54238L25.2274 2.57238C25.4624 3.22494 25.5978 3.97876 25.5978 4.76384V4.78884V4.78759C25.5871 5.81821 25.3846 6.83748 25.001 7.79162L25.0207 7.73662C24.6391 8.74326 24.0345 9.64711 23.2537 10.3781L23.2488 10.3831C22.5419 11.0957 21.588 11.4979 20.5922 11.5032H20.5909L20.5983 11.507ZM28.9041 9.47678L29.0173 9.47428C29.9168 9.47428 30.7104 9.93183 31.1854 10.6306L31.1916 10.6394C31.7202 11.4088 32.0025 12.3251 32 13.2634L31.9988 13.3709V13.3659C31.9745 14.427 31.731 15.471 31.2839 16.4302C30.8368 17.3895 30.1962 18.2425 29.4037 18.9339L29.3938 18.9427C28.6487 19.6294 27.6817 20.015 26.6757 20.0265H26.6732C26.2289 20.0468 25.7867 19.9526 25.3878 19.7526C24.9889 19.5526 24.6463 19.2533 24.3919 18.8827L24.3857 18.8739C23.8361 18.0788 23.553 17.125 23.5785 16.1537V16.1587C23.6021 15.0939 23.8452 14.0459 24.2922 13.0825C24.7392 12.1191 25.3802 11.2617 26.1736 10.5656L26.1835 10.5569C26.9278 9.8723 27.8927 9.48772 28.8967 9.47553H28.8992L28.9041 9.47678Z" fill="#05AEEF"/>
</svg>
