<svg width="75" height="75" viewBox="0 0 75 75" fill="none" xmlns="http://www.w3.org/2000/svg">
<circle cx="37.5" cy="37.5" r="37.5" fill="#EAF7FC"/>
<path d="M56.124 19C49.4401 20.0531 40.0242 23.1535 32.896 28.3858C32.9338 28.4048 32.9716 28.4333 33.0095 28.4523C33.4632 28.7466 33.8414 29.1455 34.0966 29.6298C40.3361 25.1192 48.5798 22.1897 54.8004 20.9742V51.347H56.5021V20.205C56.4737 19.7112 56.209 19.0617 56.124 19ZM23.5179 19.5403C21.7538 19.5403 20.1967 21.2876 20.1967 23.6093C20.1967 25.9358 21.7538 27.6831 23.5179 27.6831C25.2857 27.6831 26.8361 25.9358 26.8361 23.6093C26.8361 21.2876 25.2857 19.5403 23.5179 19.5403ZM20.8358 28.4997C19.2618 32.507 18.6038 36.6947 18.1509 40.5501C20.4633 40.4646 22.7115 40.3222 24.8603 40.1228C24.6901 38.7649 24.5861 37.4164 24.5294 36.068C23.7731 35.5077 22.9979 34.8525 22.2236 34.1593L23.3571 32.8869C24.3876 33.808 25.3897 34.6341 26.2784 35.2134C27.1576 35.8021 27.9422 36.1155 28.3487 36.144H28.3582C28.3109 36.144 28.5567 36.106 28.8971 35.8781C29.2279 35.6407 29.6534 35.2609 30.0882 34.7861C30.958 33.846 31.9034 32.5165 32.6124 31.1966C32.7353 30.9687 32.7353 30.7788 32.6408 30.5414C32.5557 30.304 32.3477 30.0476 32.083 29.8862C31.8277 29.7152 31.5347 29.6393 31.2889 29.6677C31.0431 29.6962 30.8067 29.7912 30.542 30.152L28.0084 33.5611L24.0378 29.3544C23.8676 29.3829 23.6975 29.3924 23.5179 29.3924C22.5195 29.3924 21.6044 29.06 20.8358 28.4997ZM39.1355 39.6385C33.1702 40.9964 24.5578 42.2404 15.0945 42.3068V51.252H28.2069C33.2931 48.6406 37.3109 43.6838 39.1355 39.6385ZM19.3487 52.7714C18.1027 52.7714 16.5816 53.1797 15.2978 53.569C15.1957 53.5975 15.0983 53.626 15 53.664V55.4492C15.2449 55.3733 15.5096 55.2878 15.7903 55.2023C17.0118 54.832 18.5159 54.4806 19.3487 54.4806C20.1816 54.4806 21.0778 54.8035 22.0705 55.1833C23.0641 55.5632 24.1513 56 25.3992 56C26.6471 56 27.7342 55.5632 28.7269 55.1833C29.7195 54.8035 30.6176 54.4806 31.4496 54.4806C32.2815 54.4806 33.1796 54.8035 34.1723 55.1833C35.1649 55.5632 36.2521 56 37.5 56C38.7479 56 39.8351 55.5632 40.8277 55.1833C41.8204 54.8035 42.7185 54.4806 43.5504 54.4806C44.3824 54.4806 45.2805 54.8035 46.2731 55.1833C47.2658 55.5632 48.3529 56 49.6008 56C50.8487 56 51.9359 55.5632 52.9286 55.1833C53.9212 54.8035 54.8193 54.4806 55.6513 54.4806C56.4832 54.4806 57.9863 54.832 59.2059 55.2023C59.4895 55.2878 59.7542 55.3733 60 55.4492V53.664C59.9055 53.626 59.8109 53.5975 59.7069 53.569C58.4212 53.1797 56.8992 52.7714 55.6513 52.7714C54.4034 52.7714 53.3162 53.2082 52.3235 53.588C51.3309 53.9679 50.4328 54.2907 49.6008 54.2907C48.7689 54.2907 47.8708 53.9679 46.8782 53.588C45.8855 53.2082 44.7983 52.7714 43.5504 52.7714C42.3025 52.7714 41.2153 53.2082 40.2227 53.588C39.23 53.9679 38.3319 54.2907 37.5 54.2907C36.6681 54.2907 35.77 53.9679 34.7773 53.588C33.7847 53.2082 32.6975 52.7714 31.4496 52.7714C30.2017 52.7714 29.1145 53.2082 28.1218 53.588C27.1292 53.9679 26.2311 54.2907 25.3992 54.2907C24.5672 54.2907 23.6691 53.9679 22.6765 53.588C21.6838 53.2082 20.5947 52.7714 19.3487 52.7714Z" fill="#35B8EB"/>
</svg>
