<svg width="43" height="43" viewBox="0 0 43 43" fill="none" xmlns="http://www.w3.org/2000/svg">
<rect width="43" height="43" rx="21.5" fill="#35B8EB"/>
<path d="M16.9547 20.3457L21.5834 21.5858L26.2122 22.8259L30.8405 24.066C31.9608 19.8852 30.1356 15.6087 26.6367 13.44C25.8381 12.9456 24.9711 12.5714 24.0636 12.3292C23.022 12.0487 21.9404 11.9463 20.8647 12.0264C16.9178 12.3235 13.4089 15.0653 12.3269 19.1051L16.9552 20.3452L16.9547 20.3457Z" stroke="white" stroke-width="1.5" stroke-linecap="round" stroke-linejoin="round"/>
<path d="M17.8808 20.5934C17.8808 20.5934 18.2694 18.2172 19.8152 16.1511C21.361 14.0849 24.0635 12.3288 24.0635 12.3288C24.0635 12.3288 25.5264 15.2014 25.8321 17.7635C26.1378 20.3256 25.2859 22.5777 25.2859 22.5777M12.3268 19.1056L16.9551 20.3457L21.5833 21.5858M21.5833 21.5858L26.2111 22.8259L30.8399 24.066M21.5833 21.5858L18.9479 31.1691M12 31.1691H31.1667" stroke="white" stroke-width="1.5" stroke-linecap="round" stroke-linejoin="round"/>
<path d="M20.8645 12.0269C21.9402 11.9465 23.0218 12.0486 24.0634 12.3288C24.971 12.5712 25.838 12.9458 26.6365 13.4404" stroke="white" stroke-width="1.5" stroke-linecap="round" stroke-linejoin="round"/>
</svg>
