<svg width="11" height="19" viewBox="0 0 11 19" fill="none" xmlns="http://www.w3.org/2000/svg">
<path d="M2.01595 0.369283L9.91597 8.63726C10.0097 8.73569 10.076 8.84232 10.1148 8.95715C10.1541 9.07199 10.1738 9.19502 10.1738 9.32626C10.1738 9.4575 10.1541 9.58053 10.1148 9.69537C10.076 9.8102 10.0097 9.91683 9.91597 10.0153L2.01595 18.3078C1.79715 18.5375 1.52366 18.6523 1.19547 18.6523C0.86728 18.6523 0.585975 18.5293 0.351553 18.2832C0.117131 18.0372 -8.00297e-05 17.7501 -8.0001e-05 17.422C-7.99723e-05 17.0939 0.117131 16.8068 0.351553 16.5607L7.24356 9.32626L0.351554 2.09178C0.132761 1.86211 0.0233637 1.5793 0.0233637 1.24333C0.0233637 0.906704 0.140575 0.615354 0.374997 0.369283C0.609419 0.123212 0.88291 0.000178479 1.19547 0.000178506C1.50803 0.000178534 1.78153 0.123212 2.01595 0.369283Z" fill="black"/>
</svg>
