<svg width="11" height="19" viewBox="0 0 11 19" fill="none" xmlns="http://www.w3.org/2000/svg">
<path d="M8.15788 18.2831L0.257864 10.0151C0.164095 9.91665 0.0978318 9.81002 0.0590741 9.69519C0.0196912 9.58036 0 9.45732 0 9.32608C0 9.19484 0.0196912 9.07181 0.0590741 8.95698C0.0978318 8.84214 0.164095 8.73551 0.257864 8.63708L8.15788 0.344499C8.37667 0.114833 8.65017 0 8.97836 0C9.30655 0 9.58785 0.123035 9.82228 0.369106C10.0567 0.615177 10.1739 0.902259 10.1739 1.23035C10.1739 1.55845 10.0567 1.84553 9.82228 2.0916L2.93027 9.32608L9.82228 16.5606C10.0411 16.7902 10.1505 17.073 10.1505 17.409C10.1505 17.7456 10.0333 18.037 9.79883 18.2831C9.56441 18.5291 9.29092 18.6522 8.97836 18.6522C8.66579 18.6522 8.3923 18.5291 8.15788 18.2831Z" fill="white"/>
</svg>
