<svg width="20" height="21" viewBox="0 0 20 21" fill="none" xmlns="http://www.w3.org/2000/svg">
<path d="M13.649 1.52718C12.7158 0.542341 11.4125 0 9.97403 0C8.52783 0 7.22022 0.539059 6.29141 1.5178C5.35253 2.50733 4.89508 3.85216 5.00249 5.30434C5.2154 8.16933 7.44558 10.4999 9.97403 10.4999C12.5025 10.4999 14.7288 8.1698 14.9451 5.30528C15.0539 3.86623 14.5936 2.5242 13.649 1.52718ZM18.4134 20.9999H1.5347C1.31377 21.0027 1.09498 20.9573 0.89425 20.8671C0.693518 20.7768 0.51589 20.644 0.37429 20.4782C0.0626102 20.1139 -0.0630207 19.6166 0.0300037 19.1136C0.434708 16.919 1.69773 15.0754 3.68289 13.7812C5.44652 12.6323 7.68054 11.9999 9.97403 11.9999C12.2675 11.9999 14.5015 12.6327 16.2652 13.7812C18.2503 15.0749 19.5133 16.9185 19.918 19.1132C20.0111 19.6161 19.8854 20.1135 19.5738 20.4777C19.4322 20.6436 19.2546 20.7765 19.0539 20.8669C18.8531 20.9572 18.6343 21.0026 18.4134 20.9999Z" fill="#05AEEF"/>
</svg>
