<svg width="20" height="20" viewBox="0 0 20 20" fill="none" xmlns="http://www.w3.org/2000/svg">
<path id="Vector" d="M1.65286 2.52211L1.65305 2.52192L2.94546 1.22825C2.94548 1.22823 2.94549 1.22822 2.94551 1.2282C3.08059 1.09297 3.24289 0.988017 3.42164 0.920323L3.59138 1.36853L3.42164 0.920323C3.60041 0.852621 3.79154 0.823732 3.98234 0.835574C4.17313 0.847417 4.35922 0.89972 4.52825 0.98901C4.69726 1.07829 4.84533 1.2025 4.96265 1.35339C4.96267 1.35342 4.96268 1.35344 4.9627 1.35346L7.20508 4.23707L7.20547 4.23758C7.33052 4.39882 7.41733 4.58635 7.45933 4.78603L6.97004 4.88895L7.45933 4.78603C7.50133 4.98571 7.49744 5.19233 7.44793 5.39029L7.44792 5.39036L1.65286 2.52211ZM1.65286 2.52211C0.928834 3.24764 0.638252 4.30125 0.972523 5.25337L0.972665 5.25378M1.65286 2.52211L0.972665 5.25378M0.972665 5.25378C2.09214 8.43374 3.91313 11.3209 6.30058 13.7011C8.6808 16.0885 11.5679 17.9095 14.7478 19.029L14.7482 19.0292M0.972665 5.25378L14.7482 19.0292M14.7482 19.0292C15.7004 19.3635 16.754 19.0729 17.4795 18.3488L17.4799 18.3485M14.7482 19.0292L17.4799 18.3485M17.4799 18.3485L18.7721 17.0562M17.4799 18.3485L18.7721 17.0562M18.7721 17.0562L18.7723 17.056L18.4188 16.7025L18.7721 17.0562ZM2.74849 0.954486L2.71032 0.992655L1.41786 2.28512C0.612512 3.09048 0.275971 4.27668 0.657225 5.36174L2.74849 0.954486ZM2.74849 0.954486C2.90889 0.804162 3.09736 0.68663 3.30331 0.608729C3.52635 0.524362 3.76479 0.488412 4.0028 0.503264C4.2408 0.518117 4.47292 0.583433 4.68375 0.694875C4.89457 0.806318 5.07928 0.961337 5.2256 1.14964L5.22577 1.14986L7.46816 4.03225C7.46818 4.03226 7.46819 4.03228 7.4682 4.03229C7.78494 4.43957 7.89679 4.97033 7.77151 5.47147L7.77148 5.47157L7.08775 8.209L7.0877 8.20921C7.0315 8.43464 7.03453 8.67077 7.09652 8.89469C7.1585 9.1186 7.27733 9.32269 7.44146 9.48712L7.44179 9.48745L10.5129 12.5586L10.5131 12.5588C10.6778 12.7233 10.8822 12.8423 11.1065 12.9043C11.3307 12.9663 11.5671 12.9691 11.7927 12.9127C11.7928 12.9126 11.7929 12.9126 11.793 12.9126L14.5289 12.2289L14.5289 12.2289C14.7761 12.1671 15.0342 12.1623 15.2836 12.2149C15.5328 12.2674 15.7669 12.3759 15.9681 12.5322L2.74849 0.954486ZM15.9683 12.5324L18.8505 14.7746C19.6496 15.3964 19.7222 16.5766 19.0079 17.2899L19.0077 17.2901L17.7152 18.5826C16.9098 19.388 15.7249 19.7245 14.6387 19.342L14.6386 19.342C11.411 18.2063 8.48047 16.3585 6.06446 13.9357L6.06345 13.9347C3.64084 11.5191 1.79311 8.58906 0.657298 5.36195L15.9683 12.5324Z" fill="#35B8EB" stroke="#35B8EB"/>
</svg>
